<?xml version="1.0" standalone="no"?>
<!DOCTYPE svg PUBLIC "-//W3C//DTD SVG 20010904//EN"
 "http://www.w3.org/TR/2001/REC-SVG-20010904/DTD/svg10.dtd">
<svg version="1.0" xmlns="http://www.w3.org/2000/svg"
 width="700.000000pt" height="700.000000pt" viewBox="0 0 700.000000 700.000000"
 preserveAspectRatio="xMidYMid meet">
<metadata>
Created by potrace 1.14, written by Peter Selinger 2001-2017
</metadata>
<g transform="translate(0.000000,700.000000) scale(0.100000,-0.100000)"
fill="#000000" stroke="none">
<path d="M0 3500 l0 -3500 3500 0 3500 0 0 3500 0 3500 -3500 0 -3500 0 0
-3500z m3766 2166 c207 -44 373 -118 547 -245 l97 -70 0 155 0 154 225 0 225
0 0 -1160 0 -1160 -225 0 -225 0 0 155 0 155 -97 -70 c-174 -127 -340 -201
-547 -245 -136 -29 -384 -31 -526 -5 -553 102 -976 525 -1078 1078 -26 142
-24 390 5 526 102 553 525 976 1078 1078 142 29 390 27 521 -6 36 -9 36 -9 36
-170 l0 -161 -102 21 c-57 12 -142 21 -198 21 -451 0 -850 -299 -970 -728 -33
-119 -33 -361 0 -480 120 -429 519 -728 970 -728 56 0 141 9 198 21 l102 21 0
-161 c0 -161 0 -161 -36 -170 -131 -33 -379 -35 -521 -6 -553 102 -976 525
-1078 1078 -29 136 -31 384 -5 526 102 553 525 976 1078 1078 142 29 390 27
526 -5z"/>
</g>
</svg>
